{
  "accessors": [
    {
      "bufferView": 2,
      "componentType": 5126,
      "count": 17105,
      "max": [
        0.08787199854850769,
        -3.625159978866577,
        0.19906200468540192
      ],
      "min": [
        -0.11261899769306183,
        -3.9609060287475586,
        -0.19087499380111694
      ],
      "type": "VEC3"
    },
    {
      "bufferView": 2,
      "byteOffset": 205260,
      "componentType": 5126,
      "count": 17105,
      "max": [
        0.9995442032814026,
        0.9999306797981262,
        0.9998176097869873
      ],
      "min": [
        -0.9998769760131836,
        -0.999941349029541,
        -0.9999473690986633
      ],
      "type": "VEC3"
    },
    {
      "bufferView": 1,
      "componentType": 5126,
      "count": 17105,
      "max": [
        0.9931290149688721,
        0.9966480135917664
      ],
      "min": [
        0.0039059999398887157,
        0.0039059999398887157
      ],
      "type": "VEC2"
    },
    {
      "bufferView": 0,
      "componentType": 5125,
      "count": 90000,
      "type": "SCALAR"
    }
  ],
  "asset": {
    "extras": {
      "author": "xiezhong (https://sketchfab.com/xiezhong)",
      "license": "CC-BY-4.0 (http://creativecommons.org/licenses/by/4.0/)",
      "source": "https://sketchfab.com/3d-models/circuit-board-177eef86d2334c649bc7d2d9648cd839",
      "title": "circuit board"
    },
    "generator": "Sketchfab-12.66.0",
    "version": "2.0"
  },
  "bufferViews": [
    {
      "buffer": 0,
      "byteLength": 360000,
      "name": "floatBufferViews",
      "target": 34963
    },
    {
      "buffer": 0,
      "byteLength": 136840,
      "byteOffset": 360000,
      "byteStride": 8,
      "name": "floatBufferViews",
      "target": 34962
    },
    {
      "buffer": 0,
      "byteLength": 410520,
      "byteOffset": 496840,
      "byteStride": 12,
      "name": "floatBufferViews",
      "target": 34962
    }
  ],
  "buffers": [
    {
      "byteLength": 907360,
      "uri": "scene.bin"
    }
  ],
  "extensionsUsed": [
    "KHR_materials_unlit"
  ],
  "images": [
    {
      "uri": "textures/circuit_boardcircuit_board_baseColor.jpeg"
    }
  ],
  "materials": [
    {
      "doubleSided": true,
      "extensions": {
        "KHR_materials_unlit": {}
      },
      "name": "circuit_boardcircuit_board",
      "pbrMetallicRoughness": {
        "baseColorTexture": {
          "index": 0
        },
        "metallicFactor": 0.0
      }
    }
  ],
  "meshes": [
    {
      "name": "default__circuit boardcircuit_board_0",
      "primitives": [
        {
          "attributes": {
            "NORMAL": 1,
            "POSITION": 0,
            "TEXCOORD_0": 2
          },
          "indices": 3,
          "material": 0,
          "mode": 4
        }
      ]
    }
  ],
  "nodes": [
    {
      "children": [
        1
      ],
      "matrix": [
        1.0,
        0.0,
        0.0,
        0.0,
        0.0,
        2.220446049250313e-16,
        -1.0,
        0.0,
        0.0,
        1.0,
        2.220446049250313e-16,
        0.0,
        0.0,
        0.0,
        0.0,
        1.0
      ],
      "name": "Sketchfab_model"
    },
    {
      "children": [
        2
      ],
      "matrix": [
        1.0,
        0.0,
        0.0,
        0.0,
        0.0,
        0.0,
        1.0,
        0.0,
        0.0,
        -1.0,
        0.0,
        0.0,
        0.0,
        0.0,
        0.0,
        1.0
      ],
      "name": "632a16eb679c470c8b008c3b88076556.fbx"
    },
    {
      "children": [
        3
      ],
      "name": "RootNode"
    },
    {
      "children": [
        4
      ],
      "matrix": [
        0.0012255133491723136,
        -0.0016041670074811165,
        -0.9999979623805457,
        0.0,
        0.999998938979139,
        0.0007894663815902758,
        0.0012242481075060985,
        0.0,
        0.0007875008745352741,
        -0.999998401694245,
        0.0016051328070156856,
        0.0,
        0.0,
        0.0,
        0.0,
        1.0
      ],
      "name": "default"
    },
    {
      "children": [
        5
      ],
      "matrix": [
        -0.25211871092901245,
        0.30954614442917655,
        -0.9168518637536407,
        0.0,
        -0.7656424033786869,
        0.5156153607656575,
        0.38461995513884717,
        0.0,
        0.5918005286817518,
        0.7989505517937465,
        0.10700537388592561,
        0.0,
        -2.916640520095825,
        1.963000774383545,
        1.4249958992004395,
        1.0
      ],
      "name": "Object_4"
    },
    {
      "mesh": 0,
      "name": "default__circuit boardcircuit_board_0"
    }
  ],
  "samplers": [
    {
      "magFilter": 9729,
      "minFilter": 9987,
      "wrapS": 10497,
      "wrapT": 10497
    }
  ],
  "scene": 0,
  "scenes": [
    {
      "name": "Sketchfab_Scene",
      "nodes": [
        0
      ]
    }
  ],
  "textures": [
    {
      "sampler": 0,
      "source": 0
    }
  ]
}
